<?xml version="1.0" standalone="yes"?>

<svg version="1.1" viewBox="0.0 0.0 960.0 720.0" fill="none" stroke="none" stroke-linecap="square" stroke-miterlimit="10" xmlns="http://www.w3.org/2000/svg" xmlns:xlink="http://www.w3.org/1999/xlink"><clipPath id="p.0"><path d="m0 0l960.0 0l0 720.0l-960.0 0l0 -720.0z" clip-rule="nonzero"></path></clipPath><g clip-path="url(#p.0)"><path fill="#000000" fill-opacity="0.0" d="m0 0l960.0 0l0 720.0l-960.0 0z" fill-rule="nonzero"></path><path fill="#000000" fill-opacity="0.0" d="m51.637794 28.199474l324.9449 0l0 312.0315l-324.9449 0z" fill-rule="nonzero"></path><path fill="#ffffff" d="m143.09917 53.99947l2.328125 0l0 60.875004l-44.171883 -54.312504l0 53.437504l-2.3125 0l0 -60.875004l44.156258 54.23438l0 -53.35938zm31.120575 60.95313l-0.71875 0q-7.59375 0 -13.234375 -5.71875q-5.640625 -5.71875 -5.640625 -13.3125q0 -7.609375 5.59375 -13.15625q5.609375 -5.5625 13.84375 -5.5625q8.234375 0 14.15625 6.5625l-25.109375 24.796875q5.1875 4.15625 9.984375 4.15625q4.8125 0 8.609375 -2.203125q3.796875 -2.203125 6.28125 -5.875l0 4.078125q-5.6875 6.234375 -13.765625 6.234375zm-0.84375 -35.515625q-6.359375 0 -11.28125 4.921875q-4.90625 4.921875 -4.90625 11.328125q0 6.390625 4.234375 11.1875l23.28125 -23.109375q-4.96875 -4.328125 -11.328125 -4.328125zm35.334335 32.796875l0 2.25q-5.6875 0 -9.6875 -3.796875q-4.0 -3.8125 -4.0 -9.734375l0 -37.437504l2.5625 0l0 14.562504l11.03125 0l0 2.234375l-11.03125 0l0 20.640625q0 4.890625 3.234375 8.09375q3.25 3.1875 7.890625 3.1875zm3.5924835 -34.234375l2.640625 0l14.796875 31.4375l6.96875 -14.640625l-7.765625 -16.640625l2.5625 0l6.484375 14.15625l6.625 -14.3125l2.40625 0l-7.84375 16.796875l6.890625 14.796875l14.64061 -31.515625l2.3125 0l-17.031235 36.796875l-8.171875 -17.515625l-8.234375 17.515625l-17.28125 -36.875zm74.23558 36.875q-7.671875 0 -13.203125 -5.71875q-5.515625 -5.71875 -5.515625 -13.3125q0 -7.609375 5.59375 -13.15625q5.609375 -5.5625 13.484375 -5.5625q7.890625 0 13.4375 5.5625q5.5625 5.546875 5.5625 13.1875q0 7.640625 -5.4375 13.328125q-5.4375 5.671875 -13.203125 5.671875l-0.71875 0zm16.796875 -18.828125q0 -6.765625 -4.84375 -11.71875q-4.828125 -4.96875 -11.546875 -4.96875q-6.71875 0 -11.640625 5.0q-4.921875 5.0 -4.921875 11.71875q0 6.71875 4.921875 11.640625q4.921875 4.921875 11.671875 4.921875q6.765625 0 11.5625 -4.921875q4.796875 -4.921875 4.796875 -11.671875zm31.211212 -13.171875q-3.53125 -3.515625 -7.765625 -3.515625q-4.234375 0 -7.484375 3.203125q-3.234375 3.203125 -3.234375 7.4375l0 24.0l-2.5625 0l0 -36.0l2.5625 0l0 5.359375q1.4375 -2.71875 4.46875 -4.46875q3.046875 -1.765625 6.8125 -1.765625q3.765625 0 7.203125 2.5625l0 3.1875zm6.793091 -28.718754l2.5625 0l0 36.32813l14.234375 -12.484375l3.28125 0l-16.46875 14.40625l20.640625 21.59375l-3.453125 0l-18.234375 -18.953125l0 18.953125l-2.5625 0l0 -59.843754z" fill-rule="nonzero"></path><path fill="#ffffff" d="m331.29202 154.18636l0 1.796875q-3.703125 0 -6.296875 2.5625q-2.59375 2.5625 -2.59375 6.46875l0 16.828125l8.953125 0l0 1.78125l-8.953125 0l0 11.015625l-2.046875 0l0 -29.625q0 -4.75 3.1875 -7.78125q3.203125 -3.046875 7.75 -3.046875zm18.56549 41.15625q-6.140625 0 -10.5625 -4.578125q-4.421875 -4.578125 -4.421875 -10.65625q0 -6.078125 4.484375 -10.515625q4.484375 -4.453125 10.78125 -4.453125q6.3125 0 10.75 4.453125q4.453125 4.4375 4.453125 10.546875q0 6.109375 -4.359375 10.65625q-4.34375 4.546875 -10.546875 4.546875l-0.578125 0zm13.4375 -15.0625q0 -5.421875 -3.875 -9.390625q-3.875 -3.96875 -9.25 -3.96875q-5.375 0 -9.3125 4.0q-3.9375 4.0 -3.9375 9.390625q0 5.375 3.9375 9.3125q3.9375 3.921875 9.34375 3.921875q5.40625 0 9.25 -3.921875q3.84375 -3.9375 3.84375 -9.34375z" fill-rule="nonzero"></path><path fill="#ffffff" d="m366.23593 231.18636l0 1.796875q-3.703125 0 -6.296875 2.5625q-2.59375 2.5625 -2.59375 6.46875l0 16.82811l8.953125 0l0 1.78125l-8.953125 0l0 11.015625l-2.046875 0l0 -29.624985q0 -4.75 3.1875 -7.78125q3.203125 -3.046875 7.75 -3.046875z" fill-rule="nonzero"></path><path fill="#ffffff" d="m144.30853 303.99945l0 2.3125l-13.6875 0l0 57.6875l-2.6406326 0l0 -57.6875l-13.84375 0l0 -2.3125l30.171883 0zm8.95372 60.0l-2.5625 0l0 -59.921875l2.5625 0l0 30.875q4.0 -7.828125 13.84375 -7.828125q6.71875 0 11.3125 4.640625q4.609375 4.640625 4.609375 11.28125l0 20.953125l-2.5625 0l0 -20.953125q0 -5.609375 -3.921875 -9.640625q-3.921875 -4.046875 -9.4375 -4.046875q-5.515625 0 -9.6875 4.078125q-4.15625 4.078125 -4.15625 9.609375l0 20.953125zm59.60434 -31.125q-3.53125 -3.515625 -7.765625 -3.515625q-4.234375 0 -7.484375 3.203125q-3.234375 3.203125 -3.234375 7.4375l0 24.0l-2.5625 0l0 -36.0l2.5625 0l0 5.359375q1.4375 -2.71875 4.46875 -4.46875q3.046875 -1.765625 6.8125 -1.765625q3.765625 0 7.203125 2.5625l0 3.1875zm23.511856 32.0q-7.671875 0 -13.203125 -5.71875q-5.515625 -5.71875 -5.515625 -13.3125q0 -7.609375 5.59375 -13.15625q5.609375 -5.5625 13.484375 -5.5625q7.890625 0 13.4375 5.5625q5.5625 5.546875 5.5625 13.1875q0 7.640625 -5.4375 13.328125q-5.4375 5.671875 -13.203125 5.671875l-0.71875 0zm16.796875 -18.828125q0 -6.765625 -4.84375 -11.71875q-4.828125 -4.96875 -11.546875 -4.96875q-6.71875 0 -11.640625 5.0q-4.921875 5.0 -4.921875 11.71875q0 6.71875 4.921875 11.640625q4.921875 4.921875 11.671875 4.921875q6.765625 0 11.5625 -4.921875q4.796875 -4.921875 4.796875 -11.671875zm12.726837 17.953125l-2.5625 0l0 -36.0l2.5625 0l0 7.28125q4.078125 -8.15625 13.921875 -8.15625q6.71875 0 11.28125 4.640625q4.5625 4.640625 4.5625 11.28125l0 20.953125l-2.5625 0l0 -20.953125q0 -5.53125 -3.890625 -9.609375q-3.875 -4.078125 -9.390625 -4.078125q-5.515625 0 -9.71875 4.078125q-4.203125 4.078125 -4.203125 9.609375l0 20.953125zm57.357452 0.953125l-0.71875 0q-7.59375 0 -13.234375 -5.71875q-5.640625 -5.71875 -5.640625 -13.3125q0 -7.609375 5.59375 -13.15625q5.609375 -5.5625 13.84375 -5.5625q8.234375 0 14.15625 6.5625l-25.109375 24.796875q5.1875 4.15625 9.984375 4.15625q4.8125 0 8.609375 -2.203125q3.796875 -2.203125 6.28125 -5.875l0 4.078125q-5.6875 6.234375 -13.765625 6.234375zm-0.84375 -35.515625q-6.359375 0 -11.28125 4.921875q-4.90625 4.921875 -4.90625 11.328125q0 6.390625 4.234375 11.1875l23.28125 -23.109375q-4.96875 -4.328125 -11.328125 -4.328125zm30.287476 -0.15625q-2.078125 0 -3.6875 1.359375q-1.59375 1.359375 -1.59375 3.359375q0 2.0 1.796875 3.6875q1.796875 1.671875 4.3125 3.078125q2.53125 1.390625 5.09375 3.0q2.5625 1.59375 4.359375 4.078125q1.796875 2.46875 1.796875 5.671875q0 4.71875 -3.5625 8.046875q-3.5625 3.3125 -8.59375 3.3125q-3.203125 0 -5.96875 -1.390625q-2.75 -1.40625 -4.03125 -3.71875l0 -3.84375q3.03125 6.71875 9.75 6.71875q4.171875 0 7.0 -2.5625q2.84375 -2.5625 2.84375 -5.71875q0 -3.15625 -1.796875 -5.3125q-1.796875 -2.171875 -4.359375 -3.6875q-2.5625 -1.515625 -5.078125 -3.0q-2.515625 -1.484375 -4.328125 -3.59375q-1.796875 -2.125 -1.796875 -4.96875q0 -2.84375 2.28125 -4.796875q2.28125 -1.953125 5.875 -1.953125q3.609375 0 6.171875 2.796875l0 3.28125q-2.5625 -3.84375 -6.484375 -3.84375z" fill-rule="nonzero"></path><path fill="#000000" fill-opacity="0.0" d="m321.1053 192.2271l-73.35434 62.519684" fill-rule="nonzero"></path><path stroke="#ffffff" stroke-width="1.0" stroke-linejoin="round" stroke-linecap="butt" d="m321.1053 192.2271l-73.35434 62.519684" fill-rule="nonzero"></path><path fill="#000000" fill-opacity="0.0" d="m291.53046 116.245346l29.57483 53.354324" fill-rule="nonzero"></path><path stroke="#ffffff" stroke-width="1.0" stroke-linejoin="round" stroke-linecap="butt" d="m291.53046 116.245346l29.57483 53.354324" fill-rule="nonzero"></path><path fill="#5b0f00" d="m264.2362 96.19685l0 0c0 -11.071793 9.130585 -20.047249 20.393707 -20.047249l0 0c5.4087524 0 10.595978 2.112114 14.420532 5.871704c3.8245544 3.7595901 5.973175 8.858681 5.973175 14.175545l0 0c0 11.071785 -9.130554 20.047241 -20.393707 20.047241l0 0c-11.263123 0 -20.393707 -8.975456 -20.393707 -20.047241z" fill-rule="nonzero"></path><path stroke="#ffffff" stroke-width="2.0" stroke-linejoin="round" stroke-linecap="butt" d="m264.2362 96.19685l0 0c0 -11.071793 9.130585 -20.047249 20.393707 -20.047249l0 0c5.4087524 0 10.595978 2.112114 14.420532 5.871704c3.8245544 3.7595901 5.973175 8.858681 5.973175 14.175545l0 0c0 11.071785 -9.130554 20.047241 -20.393707 20.047241l0 0c-11.263123 0 -20.393707 -8.975456 -20.393707 -20.047241z" fill-rule="nonzero"></path><path fill="#5b0f00" d="m212.92651 268.9344l0 0c0 -11.071777 9.130569 -20.047241 20.393692 -20.047241l0 0c5.4087524 0 10.595963 2.1121063 14.420532 5.871689c3.8245544 3.7595978 5.973175 8.858688 5.973175 14.175552l0 0c0 11.071777 -9.130569 20.047241 -20.393707 20.047241l0 0c-11.263123 0 -20.393692 -8.975464 -20.393692 -20.047241z" fill-rule="nonzero"></path><path stroke="#ffffff" stroke-width="2.0" stroke-linejoin="round" stroke-linecap="butt" d="m212.92651 268.9344l0 0c0 -11.071777 9.130569 -20.047241 20.393692 -20.047241l0 0c5.4087524 0 10.595963 2.1121063 14.420532 5.871689c3.8245544 3.7595978 5.973175 8.858688 5.973175 14.175552l0 0c0 11.071777 -9.130569 20.047241 -20.393707 20.047241l0 0c-11.263123 0 -20.393692 -8.975464 -20.393692 -20.047241z" fill-rule="nonzero"></path><path fill="#5b0f00" d="m316.33597 180.91339l0 0c0 -8.836563 7.290344 -16.0 16.283447 -16.0l0 0c4.3186646 0 8.460419 1.6856995 11.51416 4.6862793c3.0537415 3.000595 4.7693176 7.0702515 4.7693176 11.313721l0 0c0 8.836548 -7.2903748 16.0 -16.283478 16.0l0 0c-8.993103 0 -16.283447 -7.163452 -16.283447 -16.0z" fill-rule="nonzero"></path><path stroke="#ffffff" stroke-width="2.0" stroke-linejoin="round" stroke-linecap="butt" d="m316.33597 180.91339l0 0c0 -8.836563 7.290344 -16.0 16.283447 -16.0l0 0c4.3186646 0 8.460419 1.6856995 11.51416 4.6862793c3.0537415 3.000595 4.7693176 7.0702515 4.7693176 11.313721l0 0c0 8.836548 -7.2903748 16.0 -16.283478 16.0l0 0c-8.993103 0 -16.283447 -7.163452 -16.283447 -16.0z" fill-rule="nonzero"></path></g></svg>

