<?xml version="1.0" standalone="yes"?>

<svg version="1.1" viewBox="0.0 0.0 960.0 720.0" fill="none" stroke="none" stroke-linecap="square" stroke-miterlimit="10" xmlns="http://www.w3.org/2000/svg" xmlns:xlink="http://www.w3.org/1999/xlink"><clipPath id="p.0"><path d="m0 0l960.0 0l0 720.0l-960.0 0l0 -720.0z" clip-rule="nonzero"></path></clipPath><g clip-path="url(#p.0)"><path fill="#000000" fill-opacity="0.0" d="m0 0l960.0 0l0 720.0l-960.0 0z" fill-rule="nonzero"></path><path fill="#000000" fill-opacity="0.0" d="m145.33333 165.33333l189.32283 -54.677162" fill-rule="nonzero"></path><path stroke="#000000" stroke-width="8.0" stroke-linejoin="round" stroke-linecap="butt" d="m145.33333 165.33333l189.32283 -54.677162" fill-rule="nonzero"></path><path fill="#000000" fill-opacity="0.0" d="m152.0 168.0l108.0 117.322845" fill-rule="nonzero"></path><path stroke="#000000" stroke-width="3.0" stroke-linejoin="round" stroke-linecap="butt" d="m152.0 168.0l108.0 117.322845" fill-rule="nonzero"></path><path fill="#000000" fill-opacity="0.0" d="m788.0 132.0l-525.3229 156.0" fill-rule="nonzero"></path><path stroke="#000000" stroke-width="16.0" stroke-linejoin="round" stroke-linecap="butt" d="m788.0 132.0l-525.3229 156.0" fill-rule="nonzero"></path><path fill="#000000" fill-opacity="0.0" d="m667.433 140.77684l203.77954 131.77953" fill-rule="nonzero"></path><path stroke="#000000" stroke-width="4.0" stroke-linejoin="round" stroke-linecap="butt" d="m667.433 140.77684l203.77954 131.77953" fill-rule="nonzero"></path><path fill="#000000" fill-opacity="0.0" d="m650.6562 123.338585l64.0 191.33856" fill-rule="nonzero"></path><path stroke="#000000" stroke-width="8.0" stroke-linejoin="round" stroke-linecap="butt" d="m650.6562 123.338585l64.0 191.33856" fill-rule="nonzero"></path><path fill="#000000" fill-opacity="0.0" d="m792.01056 130.66673l79.212585 141.88976" fill-rule="nonzero"></path><path stroke="#000000" stroke-width="1.0" stroke-linejoin="round" stroke-linecap="butt" d="m792.01056 130.66673l79.212585 141.88976" fill-rule="nonzero"></path><path fill="#5b0f00" d="m98.666664 165.32808l0 0c0 -25.770386 20.89103 -46.661415 46.661415 -46.661415l0 0c12.375381 0 24.243896 4.9160995 32.994614 13.666817c8.750702 8.750717 13.666809 20.619232 13.666809 32.9946l0 0c0 25.770401 -20.891022 46.661423 -46.661423 46.661423l0 0c-25.770386 0 -46.661415 -20.891022 -46.661415 -46.661423z" fill-rule="nonzero"></path><path stroke="#000000" stroke-width="12.0" stroke-linejoin="round" stroke-linecap="butt" d="m98.666664 165.32808l0 0c0 -25.770386 20.89103 -46.661415 46.661415 -46.661415l0 0c12.375381 0 24.243896 4.9160995 32.994614 13.666817c8.750702 8.750717 13.666809 20.619232 13.666809 32.9946l0 0c0 25.770401 -20.891022 46.661423 -46.661423 46.661423l0 0c-25.770386 0 -46.661415 -20.891022 -46.661415 -46.661423z" fill-rule="nonzero"></path><path fill="#5b0f00" d="m228.0 286.0l0 0c0 -18.77768 15.222321 -34.0 34.0 -34.0l0 0c9.0173645 0 17.665405 3.582138 24.041626 9.958374c6.376251 6.3762207 9.958374 15.024261 9.958374 24.041626l0 0c0 18.77768 -15.222321 34.0 -34.0 34.0l0 0c-18.77768 0 -34.0 -15.222321 -34.0 -34.0z" fill-rule="nonzero"></path><path stroke="#000000" stroke-width="12.0" stroke-linejoin="round" stroke-linecap="butt" d="m228.0 286.0l0 0c0 -18.77768 15.222321 -34.0 34.0 -34.0l0 0c9.0173645 0 17.665405 3.582138 24.041626 9.958374c6.376251 6.3762207 9.958374 15.024261 9.958374 24.041626l0 0c0 18.77768 -15.222321 34.0 -34.0 34.0l0 0c-18.77768 0 -34.0 -15.222321 -34.0 -34.0z" fill-rule="nonzero"></path><path fill="#20124d" d="m674.6562 312.65616l0 0c0 -20.986816 17.013184 -38.0 38.0 -38.0l0 0c10.078186 0 19.743652 4.0035706 26.870056 11.129944c7.126343 7.126404 11.129944 16.79184 11.129944 26.870056l0 0c0 20.986816 -17.013184 38.0 -38.0 38.0l0 0c-20.986816 0 -38.0 -17.013184 -38.0 -38.0z" fill-rule="nonzero"></path><path stroke="#000000" stroke-width="12.0" stroke-linejoin="round" stroke-linecap="butt" d="m674.6562 312.65616l0 0c0 -20.986816 17.013184 -38.0 38.0 -38.0l0 0c10.078186 0 19.743652 4.0035706 26.870056 11.129944c7.126343 7.126404 11.129944 16.79184 11.129944 26.870056l0 0c0 20.986816 -17.013184 38.0 -38.0 38.0l0 0c-20.986816 0 -38.0 -17.013184 -38.0 -38.0z" fill-rule="nonzero"></path><path fill="#20124d" d="m625.3333 123.338585l0 0c0 -13.620125 11.041321 -24.661423 24.661438 -24.661423l0 0c6.5405884 0 12.8133545 2.5982513 17.438232 7.2231674c4.624939 4.6249084 7.2232056 10.897636 7.2232056 17.438255l0 0c0 13.620125 -11.041321 24.661415 -24.661438 24.661415l0 0c-13.620117 0 -24.661438 -11.04129 -24.661438 -24.661415z" fill-rule="nonzero"></path><path stroke="#000000" stroke-width="12.0" stroke-linejoin="round" stroke-linecap="butt" d="m625.3333 123.338585l0 0c0 -13.620125 11.041321 -24.661423 24.661438 -24.661423l0 0c6.5405884 0 12.8133545 2.5982513 17.438232 7.2231674c4.624939 4.6249084 7.2232056 10.897636 7.2232056 17.438255l0 0c0 13.620125 -11.041321 24.661415 -24.661438 24.661415l0 0c-13.620117 0 -24.661438 -11.04129 -24.661438 -24.661415z" fill-rule="nonzero"></path><path fill="#20124d" d="m864.0 289.99475l0 0c0 -13.620117 11.041321 -24.661407 24.661438 -24.661407l0 0c6.5405884 0 12.813293 2.598236 17.438232 7.2231445c4.624939 4.6249084 7.2231445 10.897644 7.2231445 17.438263l0 0c0 13.620117 -11.04126 24.661407 -24.661377 24.661407l0 0c-13.620117 0 -24.661438 -11.04129 -24.661438 -24.661407z" fill-rule="nonzero"></path><path stroke="#000000" stroke-width="12.0" stroke-linejoin="round" stroke-linecap="butt" d="m864.0 289.99475l0 0c0 -13.620117 11.041321 -24.661407 24.661438 -24.661407l0 0c6.5405884 0 12.813293 2.598236 17.438232 7.2231445c4.624939 4.6249084 7.2231445 10.897644 7.2231445 17.438263l0 0c0 13.620117 -11.04126 24.661407 -24.661377 24.661407l0 0c-13.620117 0 -24.661438 -11.04129 -24.661438 -24.661407z" fill-rule="nonzero"></path><path fill="#000000" fill-opacity="0.0" d="m750.6562 312.65616l113.35431 -22.64566" fill-rule="nonzero"></path><path stroke="#000000" stroke-width="1.0" stroke-linejoin="round" stroke-linecap="butt" d="m750.6562 312.65616l113.35431 -22.64566" fill-rule="nonzero"></path><path fill="#5b0f00" d="m296.0 110.0l0 0c0 -20.986824 17.013184 -38.0 38.0 -38.0l0 0c10.078217 0 19.743683 4.003563 26.870056 11.129944c7.1263733 7.126381 11.129944 16.791832 11.129944 26.870056l0 0c0 20.986816 -17.013184 38.0 -38.0 38.0l0 0c-20.986816 0 -38.0 -17.013184 -38.0 -38.0z" fill-rule="nonzero"></path><path stroke="#000000" stroke-width="12.0" stroke-linejoin="round" stroke-linecap="butt" d="m296.0 110.0l0 0c0 -20.986824 17.013184 -38.0 38.0 -38.0l0 0c10.078217 0 19.743683 4.003563 26.870056 11.129944c7.1263733 7.126381 11.129944 16.791832 11.129944 26.870056l0 0c0 20.986816 -17.013184 38.0 -38.0 38.0l0 0c-20.986816 0 -38.0 -17.013184 -38.0 -38.0z" fill-rule="nonzero"></path><path fill="#ffffff" d="m607.979 312.64615l133.0 0l30.419006 -53.049744l26.580994 53.049744l38.0 0l0 29.700806l0 0l0 44.551178l0 103.95276l-38.0 0l-57.0 0l0 0l-133.0 0l0 -103.95276l0 -44.551178l0 0z" fill-rule="nonzero"></path><path stroke="#000000" stroke-width="12.0" stroke-linejoin="round" stroke-linecap="butt" d="m607.979 312.64615l133.0 0l30.419006 -53.049744l26.580994 53.049744l38.0 0l0 29.700806l0 0l0 44.551178l0 103.95276l-38.0 0l-57.0 0l0 0l-133.0 0l0 -103.95276l0 -44.551178l0 0z" fill-rule="nonzero"></path><path fill="#000000" d="m629.4126 355.46915l12.6875 0q4.28125 0 6.53125 0.65625q3.03125 0.890625 5.1875 3.171875q2.15625 2.265625 3.28125 5.5625q1.125 3.28125 1.125 8.109375q0 4.25 -1.0625 7.3125q-1.28125 3.75 -3.671875 6.078125q-1.8125 1.75 -4.875 2.734375q-2.296875 0.734375 -6.140625 0.734375l-13.0625 0l0 -34.359375zm6.9375 5.8125l0 22.75l5.1875 0q2.90625 0 4.1875 -0.328125q1.6875 -0.421875 2.796875 -1.421875q1.125 -1.015625 1.828125 -3.3125q0.703125 -2.3125 0.703125 -6.296875q0 -3.984375 -0.703125 -6.109375q-0.703125 -2.140625 -1.96875 -3.328125q-1.265625 -1.203125 -3.21875 -1.625q-1.453125 -0.328125 -5.6875 -0.328125l-3.125 0zm27.710938 0.28125l0 -6.09375l6.578125 0l0 6.09375l-6.578125 0zm0 28.265625l0 -24.890625l6.578125 0l0 24.890625l-6.578125 0zm19.632812 0l-6.578125 0l0 -24.890625l6.109375 0l0 3.53125q1.578125 -2.5 2.828125 -3.296875q1.25 -0.796875 2.84375 -0.796875q2.25 0 4.34375 1.234375l-2.046875 5.75q-1.65625 -1.078125 -3.09375 -1.078125q-1.375 0 -2.34375 0.765625q-0.953125 0.75 -1.515625 2.75q-0.546875 1.984375 -0.546875 8.34375l0 7.6875zm26.789062 -7.921875l6.5625 1.09375q-1.265625 3.609375 -4.0 5.5q-2.71875 1.890625 -6.828125 1.890625q-6.484375 0 -9.609375 -4.25q-2.453125 -3.390625 -2.453125 -8.578125q0 -6.1875 3.234375 -9.6875q3.234375 -3.5 8.171875 -3.5q5.5625 0 8.765625 3.671875q3.21875 3.65625 3.078125 11.234375l-16.5 0q0.0625 2.921875 1.578125 4.5625q1.53125 1.625 3.8125 1.625q1.546875 0 2.59375 -0.84375q1.0625 -0.84375 1.59375 -2.71875zm0.375 -6.65625q-0.0625 -2.859375 -1.46875 -4.34375q-1.40625 -1.5 -3.421875 -1.5q-2.15625 0 -3.5625 1.578125q-1.40625 1.5625 -1.390625 4.265625l9.84375 0zm33.617188 -2.953125l-6.5 1.171875q-0.328125 -1.953125 -1.484375 -2.9375q-1.15625 -0.984375 -3.015625 -0.984375q-2.453125 0 -3.921875 1.703125q-1.46875 1.703125 -1.46875 5.6875q0 4.421875 1.484375 6.25q1.5 1.828125 4.0 1.828125q1.875 0 3.0625 -1.0625q1.203125 -1.0625 1.703125 -3.671875l6.46875 1.109375q-1.015625 4.453125 -3.875 6.734375q-2.859375 2.265625 -7.65625 2.265625q-5.46875 0 -8.71875 -3.4375q-3.234375 -3.453125 -3.234375 -9.546875q0 -6.171875 3.25 -9.59375q3.265625 -3.4375 8.8125 -3.4375q4.546875 0 7.234375 1.953125q2.6875 1.953125 3.859375 5.96875zm16.398438 -7.359375l0 5.25l-4.5 0l0 10.03125q0 3.046875 0.125 3.546875q0.140625 0.5 0.59375 0.828125q0.453125 0.328125 1.109375 0.328125q0.921875 0 2.65625 -0.625l0.5625 5.109375q-2.296875 0.984375 -5.203125 0.984375q-1.78125 0 -3.21875 -0.59375q-1.421875 -0.609375 -2.09375 -1.546875q-0.671875 -0.953125 -0.921875 -2.578125q-0.21875 -1.140625 -0.21875 -4.640625l0 -10.84375l-3.015625 0l0 -5.25l3.015625 0l0 -4.953125l6.609375 -3.84375l0 8.796875l4.5 0zm18.984375 16.96875l6.5625 1.09375q-1.265625 3.609375 -4.0 5.5q-2.71875 1.890625 -6.828125 1.890625q-6.484375 0 -9.609375 -4.25q-2.453125 -3.390625 -2.453125 -8.578125q0 -6.1875 3.234375 -9.6875q3.234375 -3.5 8.171875 -3.5q5.5625 0 8.765625 3.671875q3.21875 3.65625 3.078125 11.234375l-16.5 0q0.0625 2.921875 1.578125 4.5625q1.53125 1.625 3.8125 1.625q1.546875 0 2.59375 -0.84375q1.0625 -0.84375 1.59375 -2.71875zm0.375 -6.65625q-0.0625 -2.859375 -1.46875 -4.34375q-1.40625 -1.5 -3.421875 -1.5q-2.15625 0 -3.5625 1.578125q-1.40625 1.5625 -1.390625 4.265625l9.84375 0zm34.742188 14.578125l-6.125 0l0 -3.65625q-1.515625 2.125 -3.59375 3.171875q-2.078125 1.046875 -4.1875 1.046875q-4.28125 0 -7.34375 -3.453125q-3.0625 -3.46875 -3.0625 -9.65625q0 -6.328125 2.96875 -9.609375q2.984375 -3.296875 7.53125 -3.296875q4.171875 0 7.21875 3.46875l0 -12.375l6.59375 0l0 34.359375zm-17.578125 -12.984375q0 3.984375 1.09375 5.765625q1.59375 2.578125 4.453125 2.578125q2.28125 0 3.875 -1.9375q1.59375 -1.9375 1.59375 -5.78125q0 -4.28125 -1.546875 -6.171875q-1.546875 -1.890625 -3.96875 -1.890625q-2.34375 0 -3.921875 1.875q-1.578125 1.859375 -1.578125 5.5625z" fill-rule="nonzero"></path><path fill="#000000" d="m666.8032 447.82852l0 -34.359375l25.46875 0l0 5.8125l-18.53125 0l0 7.609375l17.25 0l0 5.796875l-17.25 0l0 9.34375l19.1875 0l0 5.796875l-26.125 0zm54.796875 0l-6.125 0l0 -3.65625q-1.515625 2.125 -3.59375 3.171875q-2.078125 1.046875 -4.1875 1.046875q-4.28125 0 -7.34375 -3.453125q-3.0625 -3.46875 -3.0625 -9.65625q0 -6.328125 2.96875 -9.609375q2.984375 -3.296875 7.53125 -3.296875q4.171875 0 7.21875 3.46875l0 -12.375l6.59375 0l0 34.359375zm-17.578125 -12.984375q0 3.984375 1.09375 5.765625q1.59375 2.578125 4.453125 2.578125q2.28125 0 3.875 -1.9375q1.59375 -1.9375 1.59375 -5.78125q0 -4.28125 -1.546875 -6.171875q-1.546875 -1.890625 -3.96875 -1.890625q-2.34375 0 -3.921875 1.875q-1.578125 1.859375 -1.578125 5.5625zm23.460938 14.625l7.515625 0.921875q0.1875 1.3125 0.875 1.796875q0.9375 0.703125 2.953125 0.703125q2.578125 0 3.859375 -0.765625q0.875 -0.515625 1.3125 -1.671875q0.3125 -0.8125 0.3125 -3.03125l0 -3.625q-2.953125 4.03125 -7.453125 4.03125q-5.015625 0 -7.953125 -4.25q-2.296875 -3.34375 -2.296875 -8.34375q0 -6.25 3.015625 -9.546875q3.015625 -3.3125 7.484375 -3.3125q4.625 0 7.625 4.046875l0 -3.484375l6.15625 0l0 22.328125q0 4.421875 -0.734375 6.59375q-0.71875 2.1875 -2.03125 3.421875q-1.3125 1.25 -3.5 1.953125q-2.1875 0.703125 -5.546875 0.703125q-6.328125 0 -8.984375 -2.171875q-2.640625 -2.171875 -2.640625 -5.5q0 -0.328125 0.03125 -0.796875zm5.875 -14.609375q0 3.96875 1.53125 5.8125q1.546875 1.828125 3.796875 1.828125q2.40625 0 4.0625 -1.875q1.671875 -1.890625 1.671875 -5.59375q0 -3.875 -1.59375 -5.75q-1.59375 -1.875 -4.03125 -1.875q-2.359375 0 -3.90625 1.84375q-1.53125 1.84375 -1.53125 5.609375zm38.460938 5.046875l6.5625 1.09375q-1.265625 3.609375 -4.0 5.5q-2.71875 1.890625 -6.828125 1.890625q-6.484375 0 -9.609375 -4.25q-2.453125 -3.390625 -2.453125 -8.578125q0 -6.1875 3.234375 -9.6875q3.234375 -3.5 8.171875 -3.5q5.5625 0 8.765625 3.671875q3.21875 3.65625 3.078125 11.234375l-16.5 0q0.0625 2.921875 1.578125 4.5625q1.53125 1.625 3.8125 1.625q1.546875 0 2.59375 -0.84375q1.0625 -0.84375 1.59375 -2.71875zm0.375 -6.65625q-0.0625 -2.859375 -1.46875 -4.34375q-1.40625 -1.5 -3.421875 -1.5q-2.15625 0 -3.5625 1.578125q-1.40625 1.5625 -1.390625 4.265625l9.84375 0z" fill-rule="nonzero"></path><path fill="#000000" fill-opacity="0.0" d="m372.0 110.0l302.6457 202.64566" fill-rule="nonzero"></path><path stroke="#000000" stroke-width="12.0" stroke-linejoin="round" stroke-linecap="butt" d="m372.0 110.0l302.6457 202.64566" fill-rule="nonzero"></path><path fill="#ff0000" d="m788.4818 176.30334l-30.114014 65.17241l11.620544 5.363327l-35.744263 26.827576l-2.7438965 -44.591354l11.620544 5.363327l30.114014 -65.17241z" fill-rule="nonzero"></path><path stroke="#ff0000" stroke-width="1.0" stroke-linejoin="round" stroke-linecap="butt" d="m788.4818 176.30334l-30.114014 65.17241l11.620544 5.363327l-35.744263 26.827576l-2.7438965 -44.591354l11.620544 5.363327l30.114014 -65.17241z" fill-rule="nonzero"></path><path fill="#20124d" d="m742.6562 129.35957l0 0c0 -25.770386 20.890991 -46.661407 46.661377 -46.661407l0 0c12.375366 0 24.243896 4.9160995 32.99463 13.666809c8.750732 8.750717 13.666809 20.619225 13.666809 32.9946l0 0c0 25.770401 -20.891052 46.661423 -46.661438 46.661423l0 0c-25.770386 0 -46.661377 -20.891022 -46.661377 -46.661423z" fill-rule="nonzero"></path><path stroke="#000000" stroke-width="12.0" stroke-linejoin="round" stroke-linecap="butt" d="m742.6562 129.35957l0 0c0 -25.770386 20.890991 -46.661407 46.661377 -46.661407l0 0c12.375366 0 24.243896 4.9160995 32.99463 13.666809c8.750732 8.750717 13.666809 20.619225 13.666809 32.9946l0 0c0 25.770401 -20.891052 46.661423 -46.661438 46.661423l0 0c-25.770386 0 -46.661377 -20.891022 -46.661377 -46.661423z" fill-rule="nonzero"></path></g></svg>

