<?xml version="1.0" standalone="yes"?>

<svg version="1.1" viewBox="0.0 0.0 960.0 720.0" fill="none" stroke="none" stroke-linecap="square" stroke-miterlimit="10" xmlns="http://www.w3.org/2000/svg" xmlns:xlink="http://www.w3.org/1999/xlink"><clipPath id="p.0"><path d="m0 0l960.0 0l0 720.0l-960.0 0l0 -720.0z" clip-rule="nonzero"></path></clipPath><g clip-path="url(#p.0)"><path fill="#000000" fill-opacity="0.0" d="m0 0l960.0 0l0 720.0l-960.0 0z" fill-rule="nonzero"></path><path fill="#000000" fill-opacity="0.0" d="m145.33333 165.33333l189.32283 -54.677162" fill-rule="nonzero"></path><path stroke="#000000" stroke-width="8.0" stroke-linejoin="round" stroke-linecap="butt" d="m145.33333 165.33333l189.32283 -54.677162" fill-rule="nonzero"></path><path fill="#000000" fill-opacity="0.0" d="m152.0 168.0l108.0 117.322845" fill-rule="nonzero"></path><path stroke="#000000" stroke-width="3.0" stroke-linejoin="round" stroke-linecap="butt" d="m152.0 168.0l108.0 117.322845" fill-rule="nonzero"></path><path fill="#000000" fill-opacity="0.0" d="m788.0 132.0l-525.3229 156.0" fill-rule="nonzero"></path><path stroke="#000000" stroke-width="16.0" stroke-linejoin="round" stroke-linecap="butt" d="m788.0 132.0l-525.3229 156.0" fill-rule="nonzero"></path><path fill="#000000" fill-opacity="0.0" d="m372.0 110.0l302.6457 202.64566" fill-rule="nonzero"></path><path stroke="#000000" stroke-width="8.0" stroke-linejoin="round" stroke-linecap="butt" d="m372.0 110.0l262.761 175.93967" fill-rule="evenodd"></path><path fill="#000000" stroke="#000000" stroke-width="8.0" stroke-linecap="butt" d="m627.4091 296.91946l37.518616 9.219269l-22.81488 -31.178894z" fill-rule="evenodd"></path><path fill="#000000" fill-opacity="0.0" d="m667.433 140.77684l203.77954 131.77953" fill-rule="nonzero"></path><path stroke="#000000" stroke-width="4.0" stroke-linejoin="round" stroke-linecap="butt" d="m667.433 140.77684l203.77954 131.77953" fill-rule="nonzero"></path><path fill="#000000" fill-opacity="0.0" d="m792.0 138.66667l-78.677185 170.67717" fill-rule="nonzero"></path><path stroke="#000000" stroke-width="12.0" stroke-linejoin="round" stroke-linecap="butt" d="m792.0 138.66667l-78.677185 170.67717" fill-rule="nonzero"></path><path fill="#000000" fill-opacity="0.0" d="m650.6562 123.338585l64.0 191.33856" fill-rule="nonzero"></path><path stroke="#000000" stroke-width="8.0" stroke-linejoin="round" stroke-linecap="butt" d="m650.6562 123.338585l64.0 191.33856" fill-rule="nonzero"></path><path fill="#000000" fill-opacity="0.0" d="m792.01056 130.66673l79.212585 141.88976" fill-rule="nonzero"></path><path stroke="#000000" stroke-width="1.0" stroke-linejoin="round" stroke-linecap="butt" d="m792.01056 130.66673l79.212585 141.88976" fill-rule="nonzero"></path><path fill="#5b0f00" d="m98.666664 165.32808l0 0c0 -25.770386 20.89103 -46.661415 46.661415 -46.661415l0 0c12.375381 0 24.243896 4.9160995 32.994614 13.666817c8.750702 8.750717 13.666809 20.619232 13.666809 32.9946l0 0c0 25.770401 -20.891022 46.661423 -46.661423 46.661423l0 0c-25.770386 0 -46.661415 -20.891022 -46.661415 -46.661423z" fill-rule="nonzero"></path><path stroke="#000000" stroke-width="12.0" stroke-linejoin="round" stroke-linecap="butt" d="m98.666664 165.32808l0 0c0 -25.770386 20.89103 -46.661415 46.661415 -46.661415l0 0c12.375381 0 24.243896 4.9160995 32.994614 13.666817c8.750702 8.750717 13.666809 20.619232 13.666809 32.9946l0 0c0 25.770401 -20.891022 46.661423 -46.661423 46.661423l0 0c-25.770386 0 -46.661415 -20.891022 -46.661415 -46.661423z" fill-rule="nonzero"></path><path fill="#a61c00" d="m296.0 110.0l0 0c0 -20.986824 17.013184 -38.0 38.0 -38.0l0 0c10.078217 0 19.743683 4.003563 26.870056 11.129944c7.1263733 7.126381 11.129944 16.791832 11.129944 26.870056l0 0c0 20.986816 -17.013184 38.0 -38.0 38.0l0 0c-20.986816 0 -38.0 -17.013184 -38.0 -38.0z" fill-rule="nonzero"></path><path stroke="#000000" stroke-width="12.0" stroke-linejoin="round" stroke-linecap="butt" d="m296.0 110.0l0 0c0 -20.986824 17.013184 -38.0 38.0 -38.0l0 0c10.078217 0 19.743683 4.003563 26.870056 11.129944c7.1263733 7.126381 11.129944 16.791832 11.129944 26.870056l0 0c0 20.986816 -17.013184 38.0 -38.0 38.0l0 0c-20.986816 0 -38.0 -17.013184 -38.0 -38.0z" fill-rule="nonzero"></path><path fill="#5b0f00" d="m228.0 286.0l0 0c0 -18.77768 15.222321 -34.0 34.0 -34.0l0 0c9.0173645 0 17.665405 3.582138 24.041626 9.958374c6.376251 6.3762207 9.958374 15.024261 9.958374 24.041626l0 0c0 18.77768 -15.222321 34.0 -34.0 34.0l0 0c-18.77768 0 -34.0 -15.222321 -34.0 -34.0z" fill-rule="nonzero"></path><path stroke="#000000" stroke-width="12.0" stroke-linejoin="round" stroke-linecap="butt" d="m228.0 286.0l0 0c0 -18.77768 15.222321 -34.0 34.0 -34.0l0 0c9.0173645 0 17.665405 3.582138 24.041626 9.958374c6.376251 6.3762207 9.958374 15.024261 9.958374 24.041626l0 0c0 18.77768 -15.222321 34.0 -34.0 34.0l0 0c-18.77768 0 -34.0 -15.222321 -34.0 -34.0z" fill-rule="nonzero"></path><path fill="#20124d" d="m674.6562 312.65616l0 0c0 -20.986816 17.013184 -38.0 38.0 -38.0l0 0c10.078186 0 19.743652 4.0035706 26.870056 11.129944c7.126343 7.126404 11.129944 16.79184 11.129944 26.870056l0 0c0 20.986816 -17.013184 38.0 -38.0 38.0l0 0c-20.986816 0 -38.0 -17.013184 -38.0 -38.0z" fill-rule="nonzero"></path><path stroke="#000000" stroke-width="12.0" stroke-linejoin="round" stroke-linecap="butt" d="m674.6562 312.65616l0 0c0 -20.986816 17.013184 -38.0 38.0 -38.0l0 0c10.078186 0 19.743652 4.0035706 26.870056 11.129944c7.126343 7.126404 11.129944 16.79184 11.129944 26.870056l0 0c0 20.986816 -17.013184 38.0 -38.0 38.0l0 0c-20.986816 0 -38.0 -17.013184 -38.0 -38.0z" fill-rule="nonzero"></path><path fill="#20124d" d="m625.3333 123.338585l0 0c0 -13.620125 11.041321 -24.661423 24.661438 -24.661423l0 0c6.5405884 0 12.8133545 2.5982513 17.438232 7.2231674c4.624939 4.6249084 7.2232056 10.897636 7.2232056 17.438255l0 0c0 13.620125 -11.041321 24.661415 -24.661438 24.661415l0 0c-13.620117 0 -24.661438 -11.04129 -24.661438 -24.661415z" fill-rule="nonzero"></path><path stroke="#000000" stroke-width="12.0" stroke-linejoin="round" stroke-linecap="butt" d="m625.3333 123.338585l0 0c0 -13.620125 11.041321 -24.661423 24.661438 -24.661423l0 0c6.5405884 0 12.8133545 2.5982513 17.438232 7.2231674c4.624939 4.6249084 7.2232056 10.897636 7.2232056 17.438255l0 0c0 13.620125 -11.041321 24.661415 -24.661438 24.661415l0 0c-13.620117 0 -24.661438 -11.04129 -24.661438 -24.661415z" fill-rule="nonzero"></path><path fill="#20124d" d="m742.6562 129.35957l0 0c0 -25.770386 20.890991 -46.661407 46.661377 -46.661407l0 0c12.375366 0 24.243896 4.9160995 32.99463 13.666809c8.750732 8.750717 13.666809 20.619225 13.666809 32.9946l0 0c0 25.770401 -20.891052 46.661423 -46.661438 46.661423l0 0c-25.770386 0 -46.661377 -20.891022 -46.661377 -46.661423z" fill-rule="nonzero"></path><path stroke="#000000" stroke-width="12.0" stroke-linejoin="round" stroke-linecap="butt" d="m742.6562 129.35957l0 0c0 -25.770386 20.890991 -46.661407 46.661377 -46.661407l0 0c12.375366 0 24.243896 4.9160995 32.99463 13.666809c8.750732 8.750717 13.666809 20.619225 13.666809 32.9946l0 0c0 25.770401 -20.891052 46.661423 -46.661438 46.661423l0 0c-25.770386 0 -46.661377 -20.891022 -46.661377 -46.661423z" fill-rule="nonzero"></path><path fill="#20124d" d="m864.0 289.99475l0 0c0 -13.620117 11.041321 -24.661407 24.661438 -24.661407l0 0c6.5405884 0 12.813293 2.598236 17.438232 7.2231445c4.624939 4.6249084 7.2231445 10.897644 7.2231445 17.438263l0 0c0 13.620117 -11.04126 24.661407 -24.661377 24.661407l0 0c-13.620117 0 -24.661438 -11.04129 -24.661438 -24.661407z" fill-rule="nonzero"></path><path stroke="#000000" stroke-width="12.0" stroke-linejoin="round" stroke-linecap="butt" d="m864.0 289.99475l0 0c0 -13.620117 11.041321 -24.661407 24.661438 -24.661407l0 0c6.5405884 0 12.813293 2.598236 17.438232 7.2231445c4.624939 4.6249084 7.2231445 10.897644 7.2231445 17.438263l0 0c0 13.620117 -11.04126 24.661407 -24.661377 24.661407l0 0c-13.620117 0 -24.661438 -11.04129 -24.661438 -24.661407z" fill-rule="nonzero"></path><path fill="#000000" fill-opacity="0.0" d="m750.6562 312.65616l113.35431 -22.64566" fill-rule="nonzero"></path><path stroke="#000000" stroke-width="1.0" stroke-linejoin="round" stroke-linecap="butt" d="m750.6562 312.65616l113.35431 -22.64566" fill-rule="nonzero"></path><path fill="#ff0000" d="m277.32285 110.0l0 0c0 -31.301933 25.375214 -56.677166 56.677155 -56.677166l0 0c15.031708 0 29.447784 5.9713287 40.076813 16.60036c10.629028 10.629028 16.600342 25.04509 16.600342 40.076805l0 0c0 31.30194 -25.375214 56.67717 -56.677155 56.67717l0 0c-31.30194 0 -56.677155 -25.375229 -56.677155 -56.67717z" fill-rule="nonzero"></path><path stroke="#000000" stroke-width="16.0" stroke-linejoin="round" stroke-linecap="butt" d="m277.32285 110.0l0 0c0 -31.301933 25.375214 -56.677166 56.677155 -56.677166l0 0c15.031708 0 29.447784 5.9713287 40.076813 16.60036c10.629028 10.629028 16.600342 25.04509 16.600342 40.076805l0 0c0 31.30194 -25.375214 56.67717 -56.677155 56.67717l0 0c-31.30194 0 -56.677155 -25.375229 -56.677155 -56.67717z" fill-rule="nonzero"></path></g></svg>

