<?xml version="1.0" standalone="yes"?>

<svg version="1.1" viewBox="0.0 0.0 960.0 720.0" fill="none" stroke="none" stroke-linecap="square" stroke-miterlimit="10" xmlns="http://www.w3.org/2000/svg" xmlns:xlink="http://www.w3.org/1999/xlink"><clipPath id="p.0"><path d="m0 0l960.0 0l0 720.0l-960.0 0l0 -720.0z" clip-rule="nonzero"></path></clipPath><g clip-path="url(#p.0)"><path fill="#000000" fill-opacity="0.0" d="m0 0l960.0 0l0 720.0l-960.0 0z" fill-rule="nonzero"></path><path fill="#000000" fill-opacity="0.0" d="m372.0 110.0l302.6457 202.64566" fill-rule="nonzero"></path><path stroke="#000000" stroke-width="12.0" stroke-linejoin="round" stroke-linecap="butt" d="m372.0 110.0l302.6457 202.64566" fill-rule="nonzero"></path><path fill="#000000" fill-opacity="0.0" d="m145.33333 165.33333l189.32283 -54.677162" fill-rule="nonzero"></path><path stroke="#000000" stroke-width="8.0" stroke-linejoin="round" stroke-linecap="butt" d="m145.33333 165.33333l189.32283 -54.677162" fill-rule="nonzero"></path><path fill="#000000" fill-opacity="0.0" d="m152.0 168.0l108.0 117.322845" fill-rule="nonzero"></path><path stroke="#000000" stroke-width="3.0" stroke-linejoin="round" stroke-linecap="butt" d="m152.0 168.0l108.0 117.322845" fill-rule="nonzero"></path><path fill="#000000" fill-opacity="0.0" d="m788.0 132.0l-525.3229 156.0" fill-rule="nonzero"></path><path stroke="#000000" stroke-width="16.0" stroke-linejoin="round" stroke-linecap="butt" d="m788.0 132.0l-525.3229 156.0" fill-rule="nonzero"></path><path fill="#000000" fill-opacity="0.0" d="m667.433 140.77684l203.77954 131.77953" fill-rule="nonzero"></path><path stroke="#000000" stroke-width="4.0" stroke-linejoin="round" stroke-linecap="butt" d="m667.433 140.77684l203.77954 131.77953" fill-rule="nonzero"></path><path fill="#000000" fill-opacity="0.0" d="m650.6562 123.338585l64.0 191.33856" fill-rule="nonzero"></path><path stroke="#000000" stroke-width="8.0" stroke-linejoin="round" stroke-linecap="butt" d="m650.6562 123.338585l64.0 191.33856" fill-rule="nonzero"></path><path fill="#000000" fill-opacity="0.0" d="m792.01056 130.66673l79.212585 141.88976" fill-rule="nonzero"></path><path stroke="#000000" stroke-width="1.0" stroke-linejoin="round" stroke-linecap="butt" d="m792.01056 130.66673l79.212585 141.88976" fill-rule="nonzero"></path><path fill="#5b0f00" d="m98.666664 165.32808l0 0c0 -25.770386 20.89103 -46.661415 46.661415 -46.661415l0 0c12.375381 0 24.243896 4.9160995 32.994614 13.666817c8.750702 8.750717 13.666809 20.619232 13.666809 32.9946l0 0c0 25.770401 -20.891022 46.661423 -46.661423 46.661423l0 0c-25.770386 0 -46.661415 -20.891022 -46.661415 -46.661423z" fill-rule="nonzero"></path><path stroke="#000000" stroke-width="12.0" stroke-linejoin="round" stroke-linecap="butt" d="m98.666664 165.32808l0 0c0 -25.770386 20.89103 -46.661415 46.661415 -46.661415l0 0c12.375381 0 24.243896 4.9160995 32.994614 13.666817c8.750702 8.750717 13.666809 20.619232 13.666809 32.9946l0 0c0 25.770401 -20.891022 46.661423 -46.661423 46.661423l0 0c-25.770386 0 -46.661415 -20.891022 -46.661415 -46.661423z" fill-rule="nonzero"></path><path fill="#a61c00" d="m296.0 110.0l0 0c0 -20.986824 17.013184 -38.0 38.0 -38.0l0 0c10.078217 0 19.743683 4.003563 26.870056 11.129944c7.1263733 7.126381 11.129944 16.791832 11.129944 26.870056l0 0c0 20.986816 -17.013184 38.0 -38.0 38.0l0 0c-20.986816 0 -38.0 -17.013184 -38.0 -38.0z" fill-rule="nonzero"></path><path stroke="#000000" stroke-width="12.0" stroke-linejoin="round" stroke-linecap="butt" d="m296.0 110.0l0 0c0 -20.986824 17.013184 -38.0 38.0 -38.0l0 0c10.078217 0 19.743683 4.003563 26.870056 11.129944c7.1263733 7.126381 11.129944 16.791832 11.129944 26.870056l0 0c0 20.986816 -17.013184 38.0 -38.0 38.0l0 0c-20.986816 0 -38.0 -17.013184 -38.0 -38.0z" fill-rule="nonzero"></path><path fill="#5b0f00" d="m228.0 286.0l0 0c0 -18.77768 15.222321 -34.0 34.0 -34.0l0 0c9.0173645 0 17.665405 3.582138 24.041626 9.958374c6.376251 6.3762207 9.958374 15.024261 9.958374 24.041626l0 0c0 18.77768 -15.222321 34.0 -34.0 34.0l0 0c-18.77768 0 -34.0 -15.222321 -34.0 -34.0z" fill-rule="nonzero"></path><path stroke="#000000" stroke-width="12.0" stroke-linejoin="round" stroke-linecap="butt" d="m228.0 286.0l0 0c0 -18.77768 15.222321 -34.0 34.0 -34.0l0 0c9.0173645 0 17.665405 3.582138 24.041626 9.958374c6.376251 6.3762207 9.958374 15.024261 9.958374 24.041626l0 0c0 18.77768 -15.222321 34.0 -34.0 34.0l0 0c-18.77768 0 -34.0 -15.222321 -34.0 -34.0z" fill-rule="nonzero"></path><path fill="#20124d" d="m674.6562 312.65616l0 0c0 -20.986816 17.013184 -38.0 38.0 -38.0l0 0c10.078186 0 19.743652 4.0035706 26.870056 11.129944c7.126343 7.126404 11.129944 16.79184 11.129944 26.870056l0 0c0 20.986816 -17.013184 38.0 -38.0 38.0l0 0c-20.986816 0 -38.0 -17.013184 -38.0 -38.0z" fill-rule="nonzero"></path><path stroke="#000000" stroke-width="12.0" stroke-linejoin="round" stroke-linecap="butt" d="m674.6562 312.65616l0 0c0 -20.986816 17.013184 -38.0 38.0 -38.0l0 0c10.078186 0 19.743652 4.0035706 26.870056 11.129944c7.126343 7.126404 11.129944 16.79184 11.129944 26.870056l0 0c0 20.986816 -17.013184 38.0 -38.0 38.0l0 0c-20.986816 0 -38.0 -17.013184 -38.0 -38.0z" fill-rule="nonzero"></path><path fill="#20124d" d="m625.3333 123.338585l0 0c0 -13.620125 11.041321 -24.661423 24.661438 -24.661423l0 0c6.5405884 0 12.8133545 2.5982513 17.438232 7.2231674c4.624939 4.6249084 7.2232056 10.897636 7.2232056 17.438255l0 0c0 13.620125 -11.041321 24.661415 -24.661438 24.661415l0 0c-13.620117 0 -24.661438 -11.04129 -24.661438 -24.661415z" fill-rule="nonzero"></path><path stroke="#000000" stroke-width="12.0" stroke-linejoin="round" stroke-linecap="butt" d="m625.3333 123.338585l0 0c0 -13.620125 11.041321 -24.661423 24.661438 -24.661423l0 0c6.5405884 0 12.8133545 2.5982513 17.438232 7.2231674c4.624939 4.6249084 7.2232056 10.897636 7.2232056 17.438255l0 0c0 13.620125 -11.041321 24.661415 -24.661438 24.661415l0 0c-13.620117 0 -24.661438 -11.04129 -24.661438 -24.661415z" fill-rule="nonzero"></path><path fill="#20124d" d="m742.6562 129.35957l0 0c0 -25.770386 20.890991 -46.661407 46.661377 -46.661407l0 0c12.375366 0 24.243896 4.9160995 32.99463 13.666809c8.750732 8.750717 13.666809 20.619225 13.666809 32.9946l0 0c0 25.770401 -20.891052 46.661423 -46.661438 46.661423l0 0c-25.770386 0 -46.661377 -20.891022 -46.661377 -46.661423z" fill-rule="nonzero"></path><path stroke="#000000" stroke-width="12.0" stroke-linejoin="round" stroke-linecap="butt" d="m742.6562 129.35957l0 0c0 -25.770386 20.890991 -46.661407 46.661377 -46.661407l0 0c12.375366 0 24.243896 4.9160995 32.99463 13.666809c8.750732 8.750717 13.666809 20.619225 13.666809 32.9946l0 0c0 25.770401 -20.891052 46.661423 -46.661438 46.661423l0 0c-25.770386 0 -46.661377 -20.891022 -46.661377 -46.661423z" fill-rule="nonzero"></path><path fill="#20124d" d="m864.0 289.99475l0 0c0 -13.620117 11.041321 -24.661407 24.661438 -24.661407l0 0c6.5405884 0 12.813293 2.598236 17.438232 7.2231445c4.624939 4.6249084 7.2231445 10.897644 7.2231445 17.438263l0 0c0 13.620117 -11.04126 24.661407 -24.661377 24.661407l0 0c-13.620117 0 -24.661438 -11.04129 -24.661438 -24.661407z" fill-rule="nonzero"></path><path stroke="#000000" stroke-width="12.0" stroke-linejoin="round" stroke-linecap="butt" d="m864.0 289.99475l0 0c0 -13.620117 11.041321 -24.661407 24.661438 -24.661407l0 0c6.5405884 0 12.813293 2.598236 17.438232 7.2231445c4.624939 4.6249084 7.2231445 10.897644 7.2231445 17.438263l0 0c0 13.620117 -11.04126 24.661407 -24.661377 24.661407l0 0c-13.620117 0 -24.661438 -11.04129 -24.661438 -24.661407z" fill-rule="nonzero"></path><path fill="#000000" fill-opacity="0.0" d="m750.6562 312.65616l113.35431 -22.64566" fill-rule="nonzero"></path><path stroke="#000000" stroke-width="1.0" stroke-linejoin="round" stroke-linecap="butt" d="m750.6562 312.65616l113.35431 -22.64566" fill-rule="nonzero"></path><path fill="#ff0000" d="m277.32285 110.0l0 0c0 -31.301933 25.375214 -56.677166 56.677155 -56.677166l0 0c15.031708 0 29.447784 5.9713287 40.076813 16.60036c10.629028 10.629028 16.600342 25.04509 16.600342 40.076805l0 0c0 31.30194 -25.375214 56.67717 -56.677155 56.67717l0 0c-31.30194 0 -56.677155 -25.375229 -56.677155 -56.67717z" fill-rule="nonzero"></path><path stroke="#000000" stroke-width="16.0" stroke-linejoin="round" stroke-linecap="butt" d="m277.32285 110.0l0 0c0 -31.301933 25.375214 -56.677166 56.677155 -56.677166l0 0c15.031708 0 29.447784 5.9713287 40.076813 16.60036c10.629028 10.629028 16.600342 25.04509 16.600342 40.076805l0 0c0 31.30194 -25.375214 56.67717 -56.677155 56.67717l0 0c-31.30194 0 -56.677155 -25.375229 -56.677155 -56.67717z" fill-rule="nonzero"></path><path fill="#ffffff" d="m268.04724 223.55396l38.0 0l28.286438 -36.31128l28.713562 36.31128l133.0 0l0 21.186356l0 0l0 31.779526l0 74.15222l-133.0 0l-57.0 0l0 0l-38.0 0l0 -74.15222l0 -31.779526l0 0z" fill-rule="nonzero"></path><path stroke="#000000" stroke-width="12.0" stroke-linejoin="round" stroke-linecap="butt" d="m268.04724 223.55396l38.0 0l28.286438 -36.31128l28.713562 36.31128l133.0 0l0 21.186356l0 0l0 31.779526l0 74.15222l-133.0 0l-57.0 0l0 0l-38.0 0l0 -74.15222l0 -31.779526l0 0z" fill-rule="nonzero"></path><path fill="#000000" d="m320.93005 304.19302l-12.296875 -34.359375l7.53125 0l8.703125 25.421875l8.40625 -25.421875l7.359375 0l-12.296875 34.359375l-7.40625 0zm37.609375 -7.921875l6.5625 1.09375q-1.265625 3.609375 -4.0 5.5q-2.71875 1.890625 -6.828125 1.890625q-6.484375 0 -9.609375 -4.25q-2.453125 -3.390625 -2.453125 -8.578125q0 -6.1875 3.234375 -9.6875q3.234375 -3.5 8.171875 -3.5q5.5625 0 8.765625 3.671875q3.21875 3.65625 3.078125 11.234375l-16.5 0q0.0625 2.921875 1.578125 4.5625q1.53125 1.625 3.8125 1.625q1.546875 0 2.59375 -0.84375q1.0625 -0.84375 1.59375 -2.71875zm0.375 -6.65625q-0.0625 -2.859375 -1.46875 -4.34375q-1.40625 -1.5 -3.421875 -1.5q-2.15625 0 -3.5625 1.578125q-1.40625 1.5625 -1.390625 4.265625l9.84375 0zm18.210938 14.578125l-6.578125 0l0 -24.890625l6.109375 0l0 3.53125q1.578125 -2.5 2.828125 -3.296875q1.25 -0.796875 2.84375 -0.796875q2.25 0 4.34375 1.234375l-2.046875 5.75q-1.65625 -1.078125 -3.09375 -1.078125q-1.375 0 -2.34375 0.765625q-0.953125 0.75 -1.515625 2.75q-0.546875 1.984375 -0.546875 8.34375l0 7.6875zm23.789062 -24.890625l0 5.25l-4.5 0l0 10.03125q0 3.046875 0.125 3.546875q0.140625 0.5 0.59375 0.828125q0.453125 0.328125 1.109375 0.328125q0.921875 0 2.65625 -0.625l0.5625 5.109375q-2.296875 0.984375 -5.203125 0.984375q-1.78125 0 -3.21875 -0.59375q-1.421875 -0.609375 -2.09375 -1.546875q-0.671875 -0.953125 -0.921875 -2.578125q-0.21875 -1.140625 -0.21875 -4.640625l0 -10.84375l-3.015625 0l0 -5.25l3.015625 0l0 -4.953125l6.609375 -3.84375l0 8.796875l4.5 0zm18.984375 16.96875l6.5625 1.09375q-1.265625 3.609375 -4.0 5.5q-2.71875 1.890625 -6.828125 1.890625q-6.484375 0 -9.609375 -4.25q-2.453125 -3.390625 -2.453125 -8.578125q0 -6.1875 3.234375 -9.6875q3.234375 -3.5 8.171875 -3.5q5.5625 0 8.765625 3.671875q3.21875 3.65625 3.078125 11.234375l-16.5 0q0.0625 2.921875 1.578125 4.5625q1.53125 1.625 3.8125 1.625q1.546875 0 2.59375 -0.84375q1.0625 -0.84375 1.59375 -2.71875zm0.375 -6.65625q-0.0625 -2.859375 -1.46875 -4.34375q-1.40625 -1.5 -3.421875 -1.5q-2.15625 0 -3.5625 1.578125q-1.40625 1.5625 -1.390625 4.265625l9.84375 0zm8.7421875 14.578125l8.984375 -12.828125l-8.609375 -12.0625l8.046875 0l4.40625 6.84375l4.640625 -6.84375l7.734375 0l-8.4375 11.78125l9.203125 13.109375l-8.078125 0l-5.0625 -7.71875l-5.109375 7.71875l-7.71875 0z" fill-rule="nonzero"></path><path fill="#000000" d="m782.47955 173.52261l-31.649536 68.5114l10.864319 5.020706l-30.507996 28.354736l1.8150635 -41.61458l10.864258 5.020706l31.649536 -68.5114z" fill-rule="nonzero"></path><path stroke="#000000" stroke-width="1.0" stroke-linejoin="round" stroke-linecap="butt" d="m782.47955 173.52261l-31.649536 68.5114l10.864319 5.020706l-30.507996 28.354736l1.8150635 -41.61458l10.864258 5.020706l31.649536 -68.5114z" fill-rule="nonzero"></path></g></svg>

